{
  "accessors": [
    {
      "bufferView": 2,
      "componentType": 5126,
      "count": 18097,
      "max": [
        0.9566180109977722,
        1.3854320049285889,
        1.2969399690628052
      ],
      "min": [
        -0.9566180109977722,
        -1.7372360229492188,
        -0.932142972946167
      ],
      "type": "VEC3"
    },
    {
      "bufferView": 2,
      "byteOffset": 217164,
      "componentType": 5126,
      "count": 18097,
      "max": [
        0.9999550580978394,
        0.99992436170578,
        0.9999876022338867
      ],
      "min": [
        -0.9999550580978394,
        -0.9988865256309509,
        -0.9998751878738403
      ],
      "type": "VEC3"
    },
    {
      "bufferView": 1,
      "componentType": 5126,
      "count": 18097,
      "max": [
        0.9765474796295166,
        0.9019286036491394
      ],
      "min": [
        0.0234525203704834,
        0.14749997854232788
      ],
      "type": "VEC2"
    },
    {
      "bufferView": 0,
      "componentType": 5125,
      "count": 107862,
      "type": "SCALAR"
    }
  ],
  "asset": {
    "extras": {
      "author": "ADAMA (https://sketchfab.com/tnshwsh)",
      "license": "CC-BY-4.0 (http://creativecommons.org/licenses/by/4.0/)",
      "source": "https://sketchfab.com/3d-models/human-head-41319c63c3d34f7ea6b04bf2b8c092f1",
      "title": "Human head"
    },
    "generator": "Sketchfab-16.35.0",
    "version": "2.0"
  },
  "bufferViews": [
    {
      "buffer": 0,
      "byteLength": 431448,
      "name": "floatBufferViews",
      "target": 34963
    },
    {
      "buffer": 0,
      "byteLength": 144776,
      "byteOffset": 431448,
      "byteStride": 8,
      "name": "floatBufferViews",
      "target": 34962
    },
    {
      "buffer": 0,
      "byteLength": 434328,
      "byteOffset": 576224,
      "byteStride": 12,
      "name": "floatBufferViews",
      "target": 34962
    }
  ],
  "buffers": [
    {
      "byteLength": 1010552,
      "uri": "scene.bin"
    }
  ],
  "materials": [
    {
      "doubleSided": true,
      "name": "Scene_-_Root",
      "pbrMetallicRoughness": {
        "metallicFactor": 0.0,
        "roughnessFactor": 0.6
      }
    }
  ],
  "meshes": [
    {
      "name": "Object_0",
      "primitives": [
        {
          "attributes": {
            "NORMAL": 1,
            "POSITION": 0,
            "TEXCOORD_0": 2
          },
          "indices": 3,
          "material": 0,
          "mode": 4
        }
      ]
    }
  ],
  "nodes": [
    {
      "children": [
        1
      ],
      "matrix": [
        1.0,
        0.0,
        0.0,
        0.0,
        0.0,
        2.220446049250313e-16,
        -1.0,
        0.0,
        0.0,
        1.0,
        2.220446049250313e-16,
        0.0,
        0.0,
        0.0,
        0.0,
        1.0
      ],
      "name": "Sketchfab_model"
    },
    {
      "children": [
        2
      ],
      "name": "root"
    },
    {
      "children": [
        3
      ],
      "matrix": [
        1.0,
        0.0,
        0.0,
        0.0,
        0.0,
        2.220446049250313e-16,
        1.0,
        0.0,
        0.0,
        -1.0,
        2.220446049250313e-16,
        0.0,
        0.0,
        0.0,
        0.0,
        1.0
      ],
      "name": "GLTF_SceneRootNode"
    },
    {
      "children": [
        4
      ],
      "name": "FBHead_0"
    },
    {
      "mesh": 0,
      "name": "Object_4"
    }
  ],
  "scene": 0,
  "scenes": [
    {
      "name": "Sketchfab_Scene",
      "nodes": [
        0
      ]
    }
  ]
}
